<svg height="256px" width="256px" version="1.1" id="Layer_1" xmlns="http://www.w3.org/2000/svg" viewBox="0 0 511.787 511.787" xml:space="preserve" xmlns:m="https://www.mapbox.com"><g transform="translate(1 1)"><path style="fill:#FFDD09;" d="M484.331,228.333l-215.04-215.04c-7.68-7.68-21.333-7.68-29.013,0l-215.04,215.04 c-7.68,7.68-9.387,20.48-1.707,29.013c8.533,9.387,22.187,9.387,30.72,0.853L240.278,73.027c7.68-7.68,21.333-7.68,29.013,0 l186.027,186.027c8.533,8.533,23.04,8.533,30.72-0.853C493.718,248.813,492.011,236.013,484.331,228.333"/><path style="fill:#FD9808;" d="M240.278,73.027L75.585,237.72v247.467c0,9.387,7.68,17.067,17.067,17.067h324.267 c9.387,0,17.067-7.68,17.067-17.067V237.72L269.291,73.027C261.611,65.347,247.958,65.347,240.278,73.027"/><path style="fill:#FFDD09;" d="M228.331,73.027L75.585,237.72v247.467c0,9.387,6.827,17.067,16.213,17.067h301.227 c8.533,0,16.213-7.68,16.213-17.067V237.72l-153.6-164.693C247.958,65.347,236.011,65.347,228.331,73.027"/><polygon style="fill:#1CD759;" points="297.451,212.12 297.451,305.987 212.118,305.987 212.118,212.12 160.918,212.12 160.918,451.053 212.118,451.053 212.118,357.187 297.451,357.187 297.451,451.053 348.651,451.053 348.651,212.12"/><path d="M416.918,510.787H92.651c-14.507,0-25.6-11.093-25.6-25.6V237.72c0-2.56,0.853-4.267,2.56-5.973L234.305,67.053 c11.093-11.093,29.867-11.093,40.96,0l164.693,164.693c1.707,1.707,2.56,3.413,2.56,5.973v247.467 C442.518,499.693,431.425,510.787,416.918,510.787z M84.118,241.133v244.053c0,5.12,3.413,8.533,8.533,8.533h324.267 c5.12,0,8.533-3.413,8.533-8.533V241.133L263.318,79c-5.12-5.12-12.8-5.12-17.067,0L84.118,241.133z"/><path d="M348.651,459.587h-51.2c-5.12,0-8.533-3.413-8.533-8.533V365.72h-68.267v85.333c0,5.12-3.413,8.533-8.533,8.533h-51.2 c-5.12,0-8.533-3.413-8.533-8.533V212.12c0-5.12,3.413-8.533,8.533-8.533h51.2c5.12,0,8.533,3.413,8.533,8.533v85.333h68.267 V212.12c0-5.12,3.413-8.533,8.533-8.533h51.2c5.12,0,8.533,3.413,8.533,8.533v238.933 C357.185,456.173,353.771,459.587,348.651,459.587z M305.985,442.52h34.133V220.653h-34.133v85.333c0,5.12-3.413,8.533-8.533,8.533 h-85.333c-5.12,0-8.533-3.413-8.533-8.533v-85.333h-34.133V442.52h34.133v-85.333c0-5.12,3.413-8.533,8.533-8.533h85.333 c5.12,0,8.533,3.413,8.533,8.533V442.52z"/><path d="M39.745,273.56h-0.853c-8.533,0-16.213-4.267-21.333-10.24c-10.24-11.947-9.387-29.867,2.56-40.96L234.305,7.32 c11.093-11.093,29.867-11.093,40.96,0l215.04,215.04c11.093,11.093,11.947,29.013,2.56,40.96c-5.12,6.827-12.8,10.24-21.333,10.24 s-16.213-2.56-22.187-8.533L263.318,79c-5.12-5.12-12.8-5.12-17.067,0L60.225,265.027C55.105,270.147,47.425,273.56,39.745,273.56z M254.785,15.853c-3.413,0-5.973,0.853-8.533,3.413l-215.04,215.04c-5.12,5.12-5.973,12.8-1.707,17.92 c2.56,2.56,5.973,4.267,9.387,4.267c3.413,0,6.827-0.853,9.387-3.413L234.305,67.053c11.093-11.093,29.867-11.093,40.96,0 L461.291,253.08c2.56,2.56,5.973,4.267,9.387,3.413c3.413,0,6.827-1.707,9.387-4.267c4.267-5.12,3.413-12.8-1.707-17.92l0,0 l-215.04-215.04C260.758,16.707,258.198,15.853,254.785,15.853z"/></g><m:metadata><m:parameters><m:parameter m:name="color-1" m:type="color" m:value="#000000"/><m:parameter m:name="color-2" m:type="color" m:value="#1CD759"/><m:parameter m:name="color-3" m:type="color" m:value="#FD9808"/><m:parameter m:name="color-4" m:type="color" m:value="#FFDD09"/></m:parameters></m:metadata></svg>